<svg viewBox="0 0 116 116" fill="none" xmlns="http://www.w3.org/2000/svg">
<path d="M64.5301 109.975H64.332C63.5677 109.924 62.8546 109.573 62.3489 108.997C61.8431 108.422 61.5859 107.67 61.6334 106.905C63.1269 89.8576 70.6602 73.9042 82.8758 61.9197C86.2792 58.6546 90.8108 56.8278 95.5271 56.8196C97.87 56.8218 100.188 57.2991 102.341 58.2225C104.495 59.1459 106.438 60.4963 108.055 62.1921C111.24 65.6988 112.919 70.3175 112.729 75.0513C112.539 79.7851 110.496 84.2545 107.04 87.4948C106.491 88.0267 105.754 88.3189 104.99 88.3073C104.227 88.2957 103.499 87.9812 102.967 87.4329C102.435 86.8846 102.143 86.1475 102.154 85.3837C102.166 84.6199 102.481 83.8921 103.029 83.3602C105.369 81.164 106.765 78.1448 106.922 74.9393C107.079 71.7338 105.985 68.5925 103.871 66.1781C102.805 65.0542 101.523 64.157 100.102 63.5401C98.6811 62.9233 97.1504 62.5995 95.6014 62.5882C92.3051 62.5644 89.1312 63.8358 86.7628 66.1286C86.54 66.3514 69.0608 82.5927 67.402 107.276C67.3521 108.006 67.0283 108.689 66.4957 109.189C65.9631 109.69 65.2609 109.971 64.5301 109.975Z" fill="url(#paint0_linear_691_10531)"/>
<path d="M22.3422 93.1395C19.8199 93.1573 17.3196 92.6692 14.9892 91.7038C12.6588 90.7385 10.5457 89.3157 8.7748 87.5195C5.32204 84.2758 3.28302 79.8047 3.09775 75.0709C2.91247 70.3372 4.5958 65.7204 7.78448 62.2168C8.04621 61.9437 8.35916 61.7248 8.70548 61.5726C9.0518 61.4205 9.42469 61.338 9.80288 61.33C10.1811 61.3219 10.5571 61.3884 10.9096 61.5257C11.2621 61.663 11.5841 61.8684 11.8572 62.1301C12.1303 62.3918 12.3492 62.7048 12.5013 63.0511C12.6535 63.3974 12.7359 63.7703 12.744 64.1485C12.752 64.5267 12.6855 64.9028 12.5482 65.2552C12.4109 65.6077 12.2056 65.9297 11.9438 66.2028C9.82948 68.6172 8.73546 71.7584 8.8925 74.964C9.04954 78.1695 10.4454 81.1887 12.7856 83.3849C14.159 84.7953 15.8291 85.8825 17.6747 86.5677C19.5203 87.2528 21.4952 87.5187 23.4563 87.3462C39.6976 86.2816 60.5934 61.9197 68.9863 51.4718C70.6565 49.3404 71.7122 46.793 72.0395 44.105C72.3668 41.417 71.9531 38.6907 70.8432 36.2208C69.8149 33.8607 68.1487 31.8341 66.0318 30.3689C63.915 28.9037 61.4314 28.058 58.8603 27.9269C58.2166 27.9269 57.5481 27.9269 56.9044 27.9269C54.3295 28.072 51.8479 28.9414 49.7455 30.435C47.643 31.9287 46.0052 33.9857 45.0206 36.3694C43.9228 38.8581 43.5405 41.6036 43.9166 44.2976C44.2927 46.9916 45.4123 49.5274 47.1497 51.6203C47.3965 51.9093 47.583 52.2447 47.6981 52.6068C47.8132 52.9689 47.8547 53.3504 47.8201 53.7288C47.7855 54.1072 47.6755 54.4748 47.4966 54.81C47.3177 55.1453 47.0735 55.4413 46.7784 55.6806C46.1708 56.1496 45.4019 56.3582 44.6407 56.2607C43.8794 56.1632 43.1879 55.7676 42.7181 55.1607C40.2978 52.2461 38.7359 48.7158 38.2069 44.9645C37.6779 41.2131 38.2026 37.3886 39.7223 33.9183C41.1275 30.5551 43.4524 27.6561 46.4302 25.5541C49.408 23.4521 52.9182 22.2322 56.5578 22.0345C57.4393 21.9602 58.3254 21.9602 59.2069 22.0345C62.8325 22.234 66.3308 23.44 69.309 25.5174C72.2873 27.5947 74.6275 30.461 76.0671 33.7945C77.651 37.2497 78.2443 41.0768 77.7809 44.8493C77.3175 48.6218 75.8157 52.1916 73.4428 55.1607C62.574 68.8767 41.6535 92.0502 23.7782 93.2138L22.3422 93.1395Z" fill="url(#paint1_linear_691_10531)"/>
<g filter="url(#filter0_d_691_10531)">
<path d="M93.5709 93.0902H92.135C74.2597 91.9265 53.3391 68.753 42.4703 55.0371C40.1354 52.0829 38.656 48.5447 38.1933 44.8078C37.7305 41.0709 38.3022 37.2786 39.846 33.8442C41.2863 30.5041 43.6294 27.6317 46.6121 25.5499C49.5949 23.4681 53.0991 22.2593 56.731 22.0594C57.6051 22.0098 58.4812 22.0098 59.3553 22.0594C60.1197 22.1103 60.8327 22.4619 61.3385 23.0372C61.8442 23.6125 62.1015 24.3648 62.0539 25.1294C62.0447 25.5152 61.9577 25.8953 61.7982 26.2468C61.6388 26.5984 61.4101 26.9141 61.1258 27.1753C60.8416 27.4364 60.5076 27.6376 60.1438 27.7667C59.7801 27.8959 59.394 27.9504 59.0087 27.927C58.366 27.8775 57.7203 27.8775 57.0776 27.927C54.5026 28.0692 52.0186 28.928 49.9057 30.4066C47.7928 31.8852 46.1351 33.9248 45.1195 36.2952C43.9964 38.7636 43.5778 41.4945 43.9099 44.186C44.242 46.8775 45.3118 49.4247 47.0011 51.5462C55.2703 61.8703 76.2651 86.2322 92.5063 87.3463C94.4576 87.5163 96.4223 87.2514 98.259 86.5707C100.096 85.89 101.758 84.8104 103.128 83.4098C105.468 81.2136 106.864 78.1943 107.021 74.9888C107.178 71.7833 106.084 68.6421 103.969 66.2277C103.675 65.9599 103.44 65.6344 103.277 65.2716C103.114 64.9087 103.028 64.5163 103.024 64.1186C103.019 63.721 103.097 63.3267 103.251 62.9603C103.406 62.5939 103.634 62.2633 103.922 61.989C104.21 61.7147 104.551 61.5026 104.925 61.366C105.298 61.2294 105.696 61.1711 106.093 61.1948C106.49 61.2185 106.877 61.3236 107.232 61.5038C107.587 61.6839 107.9 61.935 108.153 62.2416C111.339 65.7484 113.018 70.3671 112.828 75.1009C112.638 79.8347 110.595 84.3041 107.138 87.5444C105.362 89.3283 103.246 90.7381 100.916 91.6907C98.5857 92.6432 96.0882 93.1191 93.5709 93.0902Z" fill="url(#paint2_linear_691_10531)"/>
</g>
<path d="M12.7857 83.3849C13.0552 83.6499 13.2692 83.9659 13.4153 84.3145C13.5614 84.663 13.6367 85.0372 13.6367 85.4151C13.6367 85.793 13.5614 86.1672 13.4153 86.5158C13.2692 86.8643 13.0552 87.1803 12.7857 87.4453C12.243 87.985 11.5086 88.288 10.7432 88.288C9.97773 88.288 9.2434 87.985 8.70064 87.4453C5.2463 84.1974 3.20664 79.7221 3.02138 74.9842C2.83613 70.2464 4.52013 65.6255 7.71032 62.1178C7.97042 61.8431 8.28209 61.6223 8.62752 61.468C8.97296 61.3137 9.34541 61.229 9.72359 61.2186C10.1018 61.2083 10.4783 61.2725 10.8317 61.4077C11.185 61.5428 11.5083 61.7463 11.783 62.0064C12.0577 62.2665 12.2786 62.5781 12.4328 62.9236C12.5871 63.269 12.6719 63.6415 12.6822 64.0197C12.6925 64.3978 12.6283 64.7744 12.4931 65.1277C12.358 65.4811 12.1545 65.8043 11.8944 66.0791C9.74882 68.5066 8.64038 71.6785 8.80701 74.914C8.97365 78.1495 10.4021 81.1907 12.7857 83.3849Z" fill="#FFFBF7"/>
<path d="M38.0884 43.9208C37.8213 40.5361 38.3822 37.1372 39.7224 34.0176C40.8574 31.265 42.6152 28.8129 44.8575 26.8541C47.0999 24.8952 49.7659 23.4829 52.6461 22.728C53.9261 22.3874 55.2362 22.1718 56.5578 22.0843C57.4319 22.0347 58.3081 22.0347 59.1822 22.0843H59.9745C60.6075 22.2688 61.1586 22.6638 61.5367 23.204C61.9149 23.7442 62.0974 24.3973 62.0541 25.0552C62.0551 25.4496 61.9748 25.84 61.8182 26.202C61.6617 26.564 61.4322 26.8899 61.1442 27.1593C60.8562 27.4288 60.5157 27.636 60.1441 27.7681C59.7725 27.9002 59.3776 27.9544 58.9841 27.9272H56.9045C56.2472 27.9608 55.5935 28.0436 54.9486 28.1747C52.7583 28.6294 50.7117 29.611 48.9862 31.0346C47.2606 32.4582 45.908 34.2809 45.0454 36.3449C44.6503 37.2968 44.3437 38.283 44.1293 39.2911C43.7667 41.1102 43.7248 42.9786 44.0055 44.8121C44.4718 47.3122 45.5618 49.6541 47.1746 51.6206C47.3347 51.784 47.4609 51.9776 47.5459 52.19C47.8415 52.7647 47.929 53.4239 47.7936 54.0557C47.6582 54.6876 47.3082 55.2531 46.8032 55.6562C46.5059 55.9 46.1622 56.0812 45.793 56.1886C45.4238 56.2961 45.0366 56.3276 44.6549 56.2813C44.2731 56.2351 43.9047 56.1119 43.5718 55.9194C43.239 55.7268 42.9485 55.4688 42.7181 55.161C40.9021 52.9869 39.5612 50.4569 38.7816 47.7336C38.7515 47.5983 38.7101 47.4658 38.6578 47.3375C38.4042 46.2864 38.2223 45.2193 38.1131 44.1437C38.1148 44.0686 38.1065 43.9937 38.0884 43.9208Z" fill="url(#paint3_linear_691_10531)"/>
<path d="M107.139 87.5197C106.576 87.9882 105.857 88.2265 105.127 88.1866C104.396 88.1468 103.707 87.8318 103.199 87.3049C102.691 86.7781 102.401 86.0785 102.388 85.3467C102.375 84.6149 102.639 83.9053 103.128 83.3604C105.512 81.1585 106.936 78.1086 107.093 74.8672C107.251 71.6259 106.129 68.4523 103.969 66.0298C103.709 65.755 103.506 65.4318 103.371 65.0784C103.236 64.725 103.171 64.3485 103.182 63.9703C103.192 63.5922 103.277 63.2197 103.431 62.8743C103.585 62.5288 103.806 62.2172 104.081 61.9571C104.356 61.697 104.679 61.4935 105.032 61.3584C105.386 61.2232 105.762 61.1589 106.14 61.1693C106.518 61.1796 106.891 61.2644 107.236 61.4187C107.582 61.5729 107.893 61.7937 108.154 62.0685C111.372 65.5885 113.072 70.2369 112.881 75.0029C112.691 79.769 110.627 84.2673 107.139 87.5197Z" fill="url(#paint4_linear_691_10531)"/>
<path d="M57.9444 14.3101H57.9692C59.7741 14.3101 61.2372 12.8469 61.2372 11.042V3.26797C61.2372 1.46308 59.7741 -8.39233e-05 57.9692 -8.39233e-05H57.9444C56.1395 -8.39233e-05 54.6764 1.46308 54.6764 3.26797V11.042C54.6764 12.8469 56.1395 14.3101 57.9444 14.3101Z" fill="#FED09A"/>
<path d="M81.3524 28.0122L81.3699 28.0297C82.6462 29.306 84.7154 29.306 85.9917 28.0297L91.4887 22.5326C92.765 21.2564 92.765 19.1872 91.4887 17.9109L91.4712 17.8934C90.195 16.6171 88.1257 16.6171 86.8495 17.8934L81.3524 23.3905C80.0762 24.6667 80.0762 26.7359 81.3524 28.0122Z" fill="#FED09A"/>
<path d="M24.4378 16.9407L24.4203 16.9582C23.144 18.2344 23.144 20.3037 24.4203 21.5799L29.9174 27.077C31.1936 28.3532 33.2628 28.3532 34.5391 27.077L34.5566 27.0595C35.8329 25.7832 35.8329 23.714 34.5566 22.4377L29.0595 16.9407C27.7833 15.6644 25.7141 15.6644 24.4378 16.9407Z" fill="#FED09A"/>
<g filter="url(#filter1_d_691_10531)">
<path d="M51.4085 110C50.6799 110.002 49.9779 109.727 49.4446 109.23C48.9114 108.734 48.5868 108.053 48.5365 107.326C46.853 82.5682 29.3738 66.3764 29.2005 66.2031C28.0642 65.0623 26.7138 64.1571 25.2267 63.5394C23.7397 62.9218 22.1454 62.6038 20.5352 62.6038C18.925 62.6038 17.3307 62.9218 15.8436 63.5394C14.3566 64.1571 13.0062 65.0623 11.8699 66.2031C9.75553 68.6175 8.66151 71.7587 8.81856 74.9643C8.9756 78.1698 10.3714 81.189 12.7117 83.3852C12.9831 83.6485 13.2001 83.9628 13.3501 84.31C13.5002 84.6572 13.5803 85.0305 13.5861 85.4087C13.5918 85.7869 13.523 86.1625 13.3836 86.5141C13.2442 86.8657 13.0369 87.1864 12.7736 87.4579C12.5102 87.7294 12.196 87.9463 11.8488 88.0964C11.5016 88.2464 11.1282 88.3266 10.75 88.3323C10.3718 88.3381 9.99622 88.2693 9.64463 88.1299C9.29303 87.9904 8.97234 87.7831 8.70085 87.5198C5.24229 84.2795 3.19915 79.8073 3.0138 75.0716C2.82845 70.3359 4.51581 65.7178 7.71053 62.2171C9.36038 60.5375 11.3249 59.1994 13.492 58.2792C15.6591 57.3589 17.9862 56.8747 20.3405 56.854C22.6948 56.8333 25.03 57.2766 27.213 58.1586C29.3959 59.0405 31.3836 60.3439 33.0628 61.9943C45.2313 73.981 52.7278 89.9133 54.2061 106.93C54.233 107.307 54.1852 107.686 54.0652 108.045C53.9453 108.404 53.7556 108.735 53.5071 109.021C53.2587 109.306 52.9563 109.539 52.6174 109.707C52.2785 109.875 51.9097 109.975 51.5323 110H51.4085Z" fill="url(#paint5_linear_691_10531)"/>
</g>
<path d="M12.7857 83.3849C13.0552 83.6499 13.2692 83.9659 13.4153 84.3145C13.5614 84.663 13.6367 85.0372 13.6367 85.4151C13.6367 85.793 13.5614 86.1672 13.4153 86.5158C13.2692 86.8643 13.0552 87.1803 12.7857 87.4453C12.243 87.985 11.5086 88.288 10.7432 88.288C9.97773 88.288 9.2434 87.985 8.70064 87.4453C5.2463 84.1974 3.20664 79.7221 3.02138 74.9842C2.83613 70.2464 4.52013 65.6255 7.71032 62.1178C7.97042 61.8431 8.28209 61.6223 8.62752 61.468C8.97296 61.3137 9.34541 61.229 9.72359 61.2186C10.1018 61.2083 10.4783 61.2725 10.8317 61.4077C11.185 61.5428 11.5083 61.7463 11.783 62.0064C12.0577 62.2665 12.2786 62.5781 12.4328 62.9236C12.5871 63.269 12.6719 63.6415 12.6822 64.0197C12.6925 64.3978 12.6283 64.7744 12.4931 65.1277C12.358 65.4811 12.1545 65.8043 11.8944 66.0791C9.74882 68.5066 8.64038 71.6785 8.80701 74.914C8.97365 78.1495 10.4021 81.1907 12.7857 83.3849Z" fill="url(#paint6_linear_691_10531)"/>
<defs>
<filter id="filter0_d_691_10531" x="35.4856" y="22.0222" width="79.9086" height="76.1724" filterUnits="userSpaceOnUse" color-interpolation-filters="sRGB">
<feFlood flood-opacity="0" result="BackgroundImageFix"/>
<feColorMatrix in="SourceAlpha" type="matrix" values="0 0 0 0 0 0 0 0 0 0 0 0 0 0 0 0 0 0 127 0" result="hardAlpha"/>
<feOffset dy="2.55165"/>
<feGaussianBlur stdDeviation="1.27582"/>
<feComposite in2="hardAlpha" operator="out"/>
<feColorMatrix type="matrix" values="0 0 0 0 0 0 0 0 0 0 0 0 0 0 0 0 0 0 0.1 0"/>
<feBlend mode="normal" in2="BackgroundImageFix" result="effect1_dropShadow_691_10531"/>
<feBlend mode="normal" in="SourceGraphic" in2="effect1_dropShadow_691_10531" result="shape"/>
</filter>
<filter id="filter1_d_691_10531" x="0.448352" y="56.8533" width="56.3167" height="58.25" filterUnits="userSpaceOnUse" color-interpolation-filters="sRGB">
<feFlood flood-opacity="0" result="BackgroundImageFix"/>
<feColorMatrix in="SourceAlpha" type="matrix" values="0 0 0 0 0 0 0 0 0 0 0 0 0 0 0 0 0 0 127 0" result="hardAlpha"/>
<feOffset dy="2.55165"/>
<feGaussianBlur stdDeviation="1.27582"/>
<feComposite in2="hardAlpha" operator="out"/>
<feColorMatrix type="matrix" values="0 0 0 0 0 0 0 0 0 0 0 0 0 0 0 0 0 0 0.1 0"/>
<feBlend mode="normal" in2="BackgroundImageFix" result="effect1_dropShadow_691_10531"/>
<feBlend mode="normal" in="SourceGraphic" in2="effect1_dropShadow_691_10531" result="shape"/>
</filter>
<linearGradient id="paint0_linear_691_10531" x1="102.123" y1="52.0832" x2="61.7061" y2="125" gradientUnits="userSpaceOnUse">
<stop stop-color="#CDA475"/>
<stop offset="1" stop-color="#C57213" stop-opacity="0.8"/>
</linearGradient>
<linearGradient id="paint1_linear_691_10531" x1="88.2499" y1="21.9999" x2="34" y2="88.4998" gradientUnits="userSpaceOnUse">
<stop stop-color="#CDA475"/>
<stop offset="0.0001" stop-color="#CDA475"/>
<stop offset="1" stop-color="#EFA551"/>
</linearGradient>
<linearGradient id="paint2_linear_691_10531" x1="43.4999" y1="51.5" x2="95.4998" y2="92.9999" gradientUnits="userSpaceOnUse">
<stop stop-color="#CDA475"/>
<stop offset="1" stop-color="#EFA551"/>
</linearGradient>
<linearGradient id="paint3_linear_691_10531" x1="37.9999" y1="52.75" x2="56.2499" y2="26.0001" gradientUnits="userSpaceOnUse">
<stop stop-color="#FED09A"/>
<stop offset="1" stop-color="white" stop-opacity="0.2"/>
</linearGradient>
<linearGradient id="paint4_linear_691_10531" x1="110" y1="65" x2="107.642" y2="88.1909" gradientUnits="userSpaceOnUse">
<stop stop-color="#FED09A"/>
<stop offset="1" stop-color="white" stop-opacity="0.2"/>
</linearGradient>
<linearGradient id="paint5_linear_691_10531" x1="17.5394" y1="53.3334" x2="56.706" y2="125.417" gradientUnits="userSpaceOnUse">
<stop stop-color="#CDA475"/>
<stop offset="1" stop-color="#C57213"/>
</linearGradient>
<linearGradient id="paint6_linear_691_10531" x1="4.25003" y1="59.4999" x2="12.25" y2="88.4999" gradientUnits="userSpaceOnUse">
<stop stop-color="#FED09A"/>
<stop offset="1" stop-color="white" stop-opacity="0.2"/>
</linearGradient>
</defs>
</svg>
