<svg width="80" height="80" viewBox="0 0 80 80" fill="none" xmlns="http://www.w3.org/2000/svg">
      <path d="M20.8 47.7754H24.3852V42.5607H27.202L30.694 47.7754H34.8844L30.9036 41.9554C32.9755 41.1871 34.3956 39.5343 34.3956 36.9036V36.857C34.3956 35.3206 33.9067 34.0402 32.9988 33.1322C31.9279 32.0614 30.3216 31.4794 28.2496 31.4794H20.8V47.7754ZM24.3852 39.3946V34.7153H27.947C29.693 34.7153 30.7639 35.5068 30.7639 37.0433V37.0898C30.7639 38.4634 29.7628 39.3946 28.0168 39.3946H24.3852Z" fill="#CDA475"/>
      <path d="M37.4604 47.7754H41.0455V34.7851H46.0042L50.0042 31.4794H27.7018L32.5018 34.7851H37.4604V47.7754Z" fill="#CDA475"/>
      <path d="M51.9445 48.0547C54.9243 48.0547 57.229 46.8907 58.9052 45.4707V38.3935H51.8281V41.4898H55.4365V43.8178C54.5286 44.4696 53.3646 44.7955 52.0609 44.7955C49.1742 44.7955 47.1255 42.6072 47.1255 39.6274V39.5808C47.1255 36.8105 49.1974 34.5058 51.8048 34.5058C53.6905 34.5058 54.8079 35.1111 56.065 36.1587L58.3232 33.4349C56.6238 31.9915 54.8545 31.2 51.9212 31.2C46.9858 31.2 43.3774 34.9947 43.3774 39.6274V39.6739C43.3774 44.4929 46.8694 48.0547 51.9445 48.0547Z" fill="#CDA475"/>
      <path fill-rule="evenodd" clip-rule="evenodd" d="M68.0794 68.0794C75.2962 60.8626 79.76 50.8926 79.76 39.88C79.76 28.8674 75.2962 18.8974 68.0794 11.6806C60.8626 4.46372 50.8926 0 39.88 0C28.8674 0 18.8974 4.46372 11.6806 11.6806C4.46372 18.8974 0 28.8674 0 39.88C0 50.8926 4.46372 60.8626 11.6806 68.0794C18.8974 75.2962 28.8674 79.76 39.88 79.76C50.8926 79.76 60.8626 75.2963 68.0794 68.0794ZM68.0794 68.0794L39.88 79.76L11.6806 68.0794L0 39.88L11.6806 11.6806L39.88 0L68.0794 11.6806L79.76 39.88L68.0794 68.0794Z" fill="#CDA475"/>
    </svg>